<?xml version="1.0" standalone="no"?><!DOCTYPE svg PUBLIC "-//W3C//DTD SVG 1.1//EN" "http://www.w3.org/Graphics/SVG/1.1/DTD/svg11.dtd"><svg t="1737890858853" class="icon" viewBox="0 0 1024 1024" version="1.1" xmlns="http://www.w3.org/2000/svg" p-id="5856" xmlns:xlink="http://www.w3.org/1999/xlink" width="200" height="200"><path d="M721.470952 470.273089c4.394674-17.578697 7.325139-35.157394 7.325139-55.666555 0-117.191995-96.682834-212.408574-213.874829-212.408574-117.191995 0-213.874829 95.218624-213.874829 212.408574 0 19.042907 2.930464 36.621604 7.325139 52.736091-23.437581 11.719813-49.805627 46.877207-64.455904 92.288159-17.578697 60.06123-10.253558 117.191995 17.578697 125.981343 16.114487 4.394674 35.157394-5.858884 51.271881-26.368046 8.789349 17.578697 19.042907 35.157394 32.22693 51.271881-33.693184 8.789349-57.130765 29.29851-57.130765 52.736091 0 33.693184 46.877207 61.52544 104.007972 61.52544 42.482533 0 80.568346-16.114487 95.218624-38.087858 10.253558 1.46421 19.042907 2.930464 27.832255 2.930464 8.789349 0 17.578697-1.46421 27.832255-2.930464 14.648233 21.973371 52.736091 38.087858 95.218624 38.087858 57.130765 0 104.007972-27.832255 104.007972-61.52544 0-23.437581-23.437581-43.946743-57.130765-52.736091 11.719813-14.648233 21.973371-30.76272 30.76272-46.877207 14.648233 17.578697 32.22693 26.368046 46.877207 21.973371 27.832255-8.789349 35.157394-65.920114 17.578697-125.981343C765.417694 517.148251 743.444323 483.457112 721.470952 470.273089z" fill="#2c2c2c" p-id="5857"></path><path d="M873.818296 150.926079C781.530137 58.63792 652.620374 1.507154 511.990798 1.507154S242.451459 58.63792 150.163299 150.926079C57.87514 243.214238 0.744375 372.124001 0.744375 512.753577c0 142.093786 57.130765 269.539339 149.418925 361.827498 92.288159 92.288159 221.197922 149.418925 361.827498 149.418925s269.539339-57.130765 361.827498-149.418925c92.288159-92.288159 149.418925-219.733713 149.418925-361.827498C1023.23722 372.124001 966.106455 243.214238 873.818296 150.926079zM831.337808 832.100588c-82.034601 82.034601-194.829877 133.304437-319.344966 133.304437s-237.31241-51.271881-319.344966-133.304437c-82.034601-80.568346-133.304437-194.829877-133.304437-319.344966s51.271881-237.31241 133.304437-319.344966 194.829877-133.304437 319.344966-133.304437 237.31241 51.271881 319.344966 133.304437 133.304437 194.829877 133.304437 319.344966S913.370364 751.532241 831.337808 832.100588z" fill="#2c2c2c" p-id="5858"></path></svg>